<?xml version="1.0" encoding="UTF-8"?>
<svg width="958px" height="562px" viewBox="0 0 958 562" version="1.1" xmlns="http://www.w3.org/2000/svg" xmlns:xlink="http://www.w3.org/1999/xlink">
    <!-- Generator: Sketch 53.2 (72643) - https://sketchapp.com -->
    <title>logotype-01</title>
    <desc>Created with Sketch.</desc>
    <g id="Page-1" stroke="none" stroke-width="1" fill="none" fill-rule="evenodd">
        <g id="logotype-01" fill="#FFFFFF" fill-rule="nonzero">
            <path d="M150.32,0.084 C67.6252998,0.084 0.588,67.1212998 0.588,149.816 C0.588,232.5107 67.6252998,299.548 150.32,299.548 C233.0147,299.548 300.052,232.5107 300.052,149.816 C300.052265,110.104523 284.27706,72.0194491 256.196805,43.9391945 C228.116551,15.85894 190.031477,0.0837347803 150.32,0.084 M150.32,222.857 C109.981122,222.857 77.28,190.155878 77.28,149.817 C77.28,109.478122 109.981122,76.777 150.32,76.777 C190.658878,76.777 223.36,109.478122 223.36,149.817 C223.31426,190.136917 190.639917,222.81126 150.32,222.857" id="Shape"></path>
            <path d="M807.682,0.084 C747.121059,0.084 692.523339,36.5650306 669.34767,92.5160443 C646.172001,148.467058 658.982435,212.869461 701.805487,255.692513 C744.628539,298.515565 809.030942,311.325999 864.981956,288.15033 C920.932969,264.974661 957.414,210.376941 957.414,149.816 C957.414265,110.104523 941.63906,72.0194491 913.558805,43.9391945 C885.478551,15.85894 847.393477,0.0837347803 807.682,0.084 M807.682,222.857 C767.343122,222.857 734.642,190.155878 734.642,149.817 C734.642,109.478122 767.343122,76.777 807.682,76.777 C848.020878,76.777 880.722,109.478122 880.722,149.817 C880.67626,190.136917 848.001917,222.81126 807.682,222.857" id="Shape"></path>
            <rect id="Rectangle" x="332.92" y="149.817" width="292.161" height="73.04"></rect>
            <polygon id="Path" points="541.442 450.283 608.792 450.283 608.792 428.977 541.442 428.977 541.442 390.237 613.672 390.237 613.672 368.938 515.52 368.938 515.52 515.143 614.994 515.143 614.994 493.837 541.442 493.837"></polygon>
            <path d="M702.148,466.175 C702.221698,470.791608 701.546265,475.389619 700.148,479.79 C699.011759,483.387168 697.21059,486.739173 694.838,489.672 C692.762456,492.194184 690.149427,494.22058 687.19,495.603 C684.377476,496.899288 681.317877,497.571998 678.221,497.575 C673.407292,497.594883 668.739182,495.925249 665.03,492.857 C661.114667,489.709 659.159667,484.401333 659.165,476.934 L659.165,411.052 L634.127,411.052 L634.127,483.084 C634.007409,488.31609 634.990382,493.514772 637.012,498.342 C638.808267,502.49828 641.493195,506.210621 644.878,509.218 C648.264609,512.178778 652.21907,514.418346 656.5,515.8 C661.079269,517.289896 665.868564,518.032736 670.684,518 C678.817333,518 685.464,516.278667 690.624,512.836 C695.780595,509.417965 700.097848,504.878508 703.253,499.557 L703.253,515.151 L727.181,515.151 L727.181,411.051 L702.15,411.051 L702.148,466.175 Z" id="Path"></path>
            <path d="M950.117,440.7 C947.849182,434.250824 944.261879,428.34521 939.584,423.36 C934.920571,418.472079 929.254553,414.651295 922.975,412.16 C908.824508,406.891348 893.250492,406.891348 879.1,412.16 C872.84319,414.634329 867.209304,418.458542 862.6,423.36 C857.983488,428.370443 854.439045,434.271043 852.184,440.7 C847.315351,455.236507 847.315351,470.963493 852.184,485.5 C854.439033,491.931048 857.983422,497.833941 862.6,502.847 C867.204993,507.75351 872.840086,511.578543 879.1,514.047 C893.250492,519.315652 908.824508,519.315652 922.975,514.047 C929.257666,511.561609 934.924878,507.74002 939.584,502.847 C944.261955,497.859171 947.849203,491.951264 950.117,485.5 C954.975045,470.961766 954.975045,455.238234 950.117,440.7 M926.408,477.045 C925.427591,481.079663 923.738356,484.908121 921.419,488.352 C919.24858,491.534389 916.365906,494.166768 913,496.04 C909.327015,498.013047 905.204151,498.997241 901.036,498.896 C896.904156,499.006189 892.816756,498.020825 889.189,496.04 C885.869449,494.14448 883.028407,491.51348 880.884,488.349 C878.561893,484.90664 876.872433,481.077672 875.895,477.042 C873.675068,467.878871 873.675068,458.318129 875.895,449.155 C876.873833,445.119802 878.563187,441.291075 880.884,437.848 C883.026563,434.683778 885.86813,432.054687 889.189,430.164 C892.816135,428.180876 896.903537,427.193096 901.036,427.301 C905.204848,427.202351 909.327719,428.189304 913,430.165 C916.368235,432.034005 919.252175,434.665545 921.421,437.849 C923.739073,441.293586 925.428203,445.121807 926.41,449.156 C928.620829,458.320214 928.620829,467.878786 926.41,477.043" id="Shape"></path>
            <path d="M834.669,382.018 C826.019303,382.091861 819.06039,389.151036 819.110261,397.800905 C819.160132,406.450773 826.19998,413.429238 834.849953,413.403358 C843.499926,413.377477 850.497889,406.357012 850.496,397.707 C850.456873,389.004524 843.371485,381.980915 834.669,382.018" id="Path"></path>
            <path d="M831.263,505.264 C826.775959,503.072654 822.003845,501.52122 817.086,500.655 C811.336872,499.581837 805.529992,498.845251 799.695,498.449 C794.224,498.018 789.395,497.649 785.182,497.361 C781.657034,497.143283 778.1461,496.738715 774.664,496.149 C772.414525,495.851091 770.257814,495.063233 768.346,493.841 C766.947962,492.82753 766.157687,491.175481 766.246,489.451 C766.246,486.522333 767.317333,484.472333 769.46,483.301 C771.169035,482.260881 773.108405,481.658735 775.106,481.548 C777.09023,481.619843 779.060173,481.913674 780.979,482.424 C784.295419,483.091424 787.676163,483.385256 791.058,483.3 C796.793084,483.326298 802.501064,482.51198 808,480.883 C813.178488,479.389436 818.028196,476.930993 822.294,473.637 C826.378737,470.482023 829.772145,466.521913 832.264,462.002 C834.849639,457.139445 836.144907,451.694982 836.026,446.189 C836.255979,435.272879 831.440585,424.860311 822.974,417.966 C818.990812,414.760716 814.462859,412.299084 809.607,410.699 C803.933953,409.029403 798.049619,408.187388 792.136,408.199 C785.892109,408.186002 779.676243,409.033987 773.664,410.719 C768.57793,412.325179 763.815707,414.8175 759.597,418.081 C755.434482,421.334865 752.032025,425.457742 749.627,430.162 C747.051117,435.261711 745.757428,440.912548 745.858,446.625 C745.745884,451.987563 746.925759,457.298374 749.298,462.109 C751.487547,466.451087 754.628119,470.243495 758.486,473.204 C754.195754,474.923256 750.420288,477.71792 747.523,481.319 C745.001266,484.506528 743.634247,488.454599 743.645,492.519 C743.693292,495.913846 744.60823,499.24005 746.303,502.182 C748.290835,505.598763 751.318378,508.291002 754.944,509.866 C750.558831,511.700759 746.818795,514.79889 744.2,518.766 C741.323097,522.92353 739.811842,527.873556 739.876,532.929 C739.733269,537.572947 741.051159,542.144641 743.644,546 C746.365517,549.771877 749.93238,552.85414 754.059,555 C758.984903,557.588232 764.294511,559.368568 769.785,560.273 C776.296603,561.407002 782.896517,561.956856 789.506,561.916 C796.640663,561.953137 803.761867,561.292662 810.768,559.944 C816.855041,558.827703 822.725526,556.749354 828.159,553.787 C832.891442,551.210658 836.925054,547.520273 839.911,543.035 C842.882618,538.309752 844.384727,532.80875 844.227,527.229 C844.227,521.656333 843.080333,517.115667 840.787,513.607 C838.423221,510.018138 835.132212,507.135914 831.263,505.266 M776.322,430.266 C780.279278,426.664058 785.47911,424.736972 790.828,424.89 C796.249123,424.709356 801.529375,426.636225 805.56,430.266 C809.482,433.852 811.439333,439.159667 811.432,446.189 C811.424667,453.218333 809.467333,458.416333 805.56,461.783 C801.644667,465.150333 796.734,466.835 790.828,466.837 C785.534846,466.998956 780.368572,465.198987 776.322,461.783 C772.406667,458.415667 770.449,453.217667 770.449,446.189 C770.449,439.160333 772.406667,433.852667 776.322,430.266 M818.641,536.554 C816.907174,538.672614 814.70776,540.36247 812.214,541.492 C809.12121,542.918169 805.835879,543.882777 802.463,544.355 C798.466588,544.954002 794.430001,545.244527 790.389,545.224 C781.821667,545.224 774.955,544.090667 769.789,541.824 C764.623,539.557333 762.039667,535.788333 762.039,530.517 C762.037009,527.443647 762.715585,524.407984 764.026,521.628 C765.316259,518.815597 767.607416,516.584331 770.453,515.369 C773.629805,516.053465 776.848024,516.52915 780.087,516.793 C784.002333,517.165667 788.545667,517.496667 793.717,517.786 C803.460333,518.216667 810.440333,519.166333 814.657,520.635 C818.857,522.101667 820.960667,525.030667 820.968,529.422 C821.037335,531.99703 820.216921,534.517253 818.645,536.558" id="Shape"></path>
        </g>
    </g>
</svg>