<svg id="Layer_1" data-name="Layer 1" xmlns="http://www.w3.org/2000/svg" viewBox="0 0 75.007 150.014"><title>StripesSquare_10xForMobile_26xOndesktop_02</title><rect x="0.003" y="0.003" width="75" height="75" style="fill:#d7ebec"/><polygon points="37.503 75.007 56.255 75.007 75.006 56.255 75.006 37.504 37.503 75.007" style="fill:#fff"/><polygon points="0 75.007 18.751 75.007 75.007 18.753 75.007 0.001 0 75.007" style="fill:#fff"/><polygon points="37.503 0 0 37.504 0 56.255 56.255 0 37.503 0" style="fill:#fff"/><polygon points="0 0 0 18.752 18.751 0 0 0" style="fill:#fff"/><rect width="75.007" height="75.007" style="fill:none"/><rect x="0.003" y="75.01" width="75" height="75" style="fill:#d7ebec"/><polygon points="37.503 150.014 56.255 150.014 75.006 131.262 75.006 112.511 37.503 150.014" style="fill:#fff"/><polygon points="0 150.014 18.751 150.014 75.007 93.76 75.007 75.008 0 150.014" style="fill:#fff"/><polygon points="37.503 75.007 0 112.511 0 131.262 56.255 75.007 37.503 75.007" style="fill:#fff"/><polygon points="0 75.007 0 93.759 18.751 75.007 0 75.007" style="fill:#fff"/><rect y="75.007" width="75.007" height="75.007" style="fill:none"/></svg>