<svg id="Layer_1" data-name="Layer 1" xmlns="http://www.w3.org/2000/svg" viewBox="0 0 281.355 302.206"><title>Icon_BikeLane</title><path d="M493.725,1014.376c-1.73,6.392-2.766,10.266-3.529,13.032a35.346,35.346,0,1,0,4.875,2.457c.85-2.51,2.119-6.287,4.248-12.565l19.444,30.663a29.852,29.852,0,0,0,2.1,3.343q.81,1.117,1.72,2.157.474.543.974,1.062.789.819,1.641,1.573.885.781,1.837,1.482.508.373,1.035.72.919.605,1.889,1.126a24.579,24.579,0,0,0,2.392,1.124q.537.218,1.083.41t1.087.353q.415.124.833.233.32.083.641.158.6.14,1.213.254.562.105,1.128.191.513.078,1.029.144l.48.06.506.06.853.1.277.032.417.05.372.047.931.117.562.069q.456.054.913.1a10.516,10.516,0,0,0,19.873-.443l7.651.244a35.347,35.347,0,1,0,67.81-16.381l.826.19-1.208-8.882-5.219-.412a35.347,35.347,0,0,0-50.309-3.679q-.525.462-1.032.944a172.633,172.633,0,0,1-11.7-17.029,21.43,21.43,0,0,0,.631-3.214l1.093.354.583-1.8-1.795-.581,3.015-9.785c.12-.294.242-.334.624-.336.446,0,.892-.005,1.338,0a.964.964,0,0,0,.835-.43,1.857,1.857,0,0,0,.357-1.16c-.024-.476-.018-.477.447-.652a4.563,4.563,0,0,1,.435-.158,1.441,1.441,0,0,1,1.781.491.971.971,0,0,0,.8.4,6.031,6.031,0,0,0,2.614-.442,1.026,1.026,0,0,0,.7-.816,1.353,1.353,0,0,1,.192-.41,1.6,1.6,0,0,0,.167-1.506,5.6,5.6,0,0,1-.234-.571c-.073-.221-.125-.448-.191-.692a2.213,2.213,0,0,1,.3-.084q.993-.109,1.987-.209c.136-.014.274-.014.41-.021.39-.02.521-.113.511-.481a12.266,12.266,0,0,0-.135-2.046,4.466,4.466,0,0,0-2.236-3.168,7.776,7.776,0,0,0-2.9-1,7.056,7.056,0,0,0-2.049-.01,16.878,16.878,0,0,0-2.616.734,11.22,11.22,0,0,1-3.883.9c-1.543-.031-3.088-.045-4.627-.144a38.8,38.8,0,0,0-4.615-.154,13.223,13.223,0,0,0-4.4.968,5.771,5.771,0,0,0-3.3,3.2,3.233,3.233,0,0,0-.216.789.617.617,0,0,0,.539.741c.233.054.464.13.7.162a23.9,23.9,0,0,0,3.941.349c1.645-.055,3.291-.11,4.937-.152a1.89,1.89,0,0,1,.7.1,5.521,5.521,0,0,1,1.9,1.279,5.87,5.87,0,0,0,2.669,1.659l-3.59,11.65-3.924-1.271-.583,1.8,3.287,1.064c-4.63,12.794-8.341,23.629-12.363,35.941a10.516,10.516,0,0,0-9.365,4.569c-1.029-.1-2.05-.246-3.078-.37a34.775,34.775,0,0,1-5.247-.843,14.849,14.849,0,0,1-4.116-1.875,17.529,17.529,0,0,1-3.6-3.2,20.439,20.439,0,0,1-2.7-3.956l-21.038-33.177a14.525,14.525,0,0,1-.9-1.4,9.1,9.1,0,0,1-1.2-3,6.942,6.942,0,0,1-.01-1.942l1.546-5.132,1.11.334,2.539-8.426-5.96-1.8,4.321-14.339c.852-.575,1.5.215,2.3.545a2.783,2.783,0,0,0,2.461-.236c.714-.437,1.194-1.183,1.9-1.327s1.634.313,2.478.225a2.735,2.735,0,0,0,2-1.46,1.842,1.842,0,0,0-.052-2.112,3.281,3.281,0,0,0-2.413-.691,8,8,0,0,1-2.522.066c-.724-.237-1.307-.98-2.061-1.258a4.532,4.532,0,0,0-2.529.117,5.148,5.148,0,0,0-2.2.937c-.583.5-.979,1.279-1.56,1.89a6.253,6.253,0,0,1-2.119,1.382,14.682,14.682,0,0,1-2.42.732c-.865.2-1.813.4-1.941,1.014a2.547,2.547,0,0,0,1.3,2.078,1.613,1.613,0,0,0,2.128-.443L498.8,987.247l-2.275-.686-1.269,4.213,7.2,2.168-1.27,4.213-3.073-.926-.468,1.554-34.218,1.365,2.994,13.945a2.574,2.574,0,0,0,2.595,2.032Z" transform="translate(-399.815 -803.294)" style="fill:#00918d"/><rect width="17.702" height="302.206" style="fill:#f9cc3e"/><rect x="263.653" width="17.702" height="302.206" style="fill:#f9cc3e"/><path d="M488.816,1032.183c-1.009,3.265-2.1,6.254-3.013,8.652a49.545,49.545,0,0,1-2.678,6.166,81.7,81.7,0,0,1-4.422,6.978,6.651,6.651,0,1,0,3.378,2.606c1.092-1.577,1.786-2.572,2.471-3.619,1.2-1.829,2.37-3.816,3.305-5.6s1.634-3.36,2.525-5.4,1.975-4.553,2.89-6.975c.119-.316.236-.63.357-.964a31.057,31.057,0,1,1-4.625-2.464C488.942,1031.771,488.879,1031.977,488.816,1032.183Z" transform="translate(-399.815 -803.294)" style="fill:#333"/><path d="M600.195,1058.966a6.623,6.623,0,0,1,.247-.9c-1.176-.909-4.068-3.178-6.32-5.11a60.936,60.936,0,0,1-6.7-6.739c-1.171-1.327-2.552-2.93-4.412-5.268a31.057,31.057,0,0,0-5.109,9.612,72.844,72.844,0,0,1,11.756,2.918A35.22,35.22,0,0,1,600.195,1058.966Z" transform="translate(-399.815 -803.294)" style="fill:#333"/><path d="M571.262,1025.033c-3.163,9.33-5.787,17.3-8.169,24.179,4.988.293,8.113.528,10.494.778a35.347,35.347,0,0,1,6.72-12.519C577.979,1034.41,575.054,1030.417,571.262,1025.033Z" transform="translate(-399.815 -803.294)" style="fill:#333"/><path d="M602.747,1054.934a6.651,6.651,0,1,1-1.758,8.716l-24.467-.78a31.057,31.057,0,1,0,58.229-17.579,43.351,43.351,0,0,0-6.611-.691,35.3,35.3,0,0,0-7.569.747,33.05,33.05,0,0,0-6.367,1.925,46.937,46.937,0,0,0-4.934,2.544,12.812,12.812,0,0,0-2.761,1.955,3.139,3.139,0,0,1-1.106.415,2.866,2.866,0,0,1-1.322-.091,2.966,2.966,0,0,1-.85-.434l-15.991-15.131q-.776.666-1.506,1.38,1.75,2.206,3.541,4.39a58.528,58.528,0,0,0,6.358,6.93c1.646,1.453,3.441,2.72,5.193,4.151C601.461,1053.9,602.091,1054.444,602.747,1054.934Z" transform="translate(-399.815 -803.294)" style="fill:#333"/><circle cx="554.542" cy="1059.274" r="3.739" transform="translate(-1036.251 361.568) rotate(-67.434)" style="fill:#333"/><circle cx="554.542" cy="1059.274" r="6.651" transform="translate(-778.439 -491.536) rotate(-23.671)" style="fill:#333"/><polygon points="99.406 174.183 122.125 151.808 155.051 133.555 190.946 187.217 144.468 266.044 131.166 260.723 165.701 194.15 132.222 203.548 137.358 221.723 122.981 226.249 116.653 198.09 156.09 185.486 134.654 152.822 108.237 180.866 99.406 174.183" style="fill:#00918d"/><polygon points="140.678 11.168 84.226 58.35 119.323 58.35 119.323 91.383 162.032 91.383 162.032 58.35 197.129 58.35 140.678 11.168" style="fill:#f9cc3e"/><path d="M537.363,940.787h-7.051a7.733,7.733,0,0,1-7.733-7.733v-4.191h-4.474c-.732-10.536,7.5-14.17,15.732-14.17s16.464,3.634,15.732,14.17H545.1v4.191A7.733,7.733,0,0,1,537.363,940.787Z" transform="translate(-399.815 -803.294)" style="fill:#00918d"/></svg>