<svg id="Layer_1" data-name="Layer 1" xmlns="http://www.w3.org/2000/svg" viewBox="0 0 275.053 302.206"><title>Icon_Helmet</title><path d="M415.6,972.492c-8.186-2.308-11.828-10.117-12.429-19.982a68.883,68.883,0,0,1,.992-15.235q2.768-16.809,6.268-33.5c7.933-38.112,30.781-64.568,65.054-81.53,53.128-26.294,122.848-12.909,162.095,30.628,17.48,19.391,26.313,42.653,30.831,67.9.726,4.054.929,8.264,2.175,12.145a53.889,53.889,0,0,0,5.822,12.856c2.586,3.98,2.592,5.795-2.265,6.578a142.613,142.613,0,0,1-19.144,1.7q-20.512.506-41.038.332c-6.284-.249-12.533-.049-18.864.224-8.895.383-17.949.911-26.259,3.609-6.093,1.978-11.785,5.123-18.1,7.076-8.988,2.778-19.242,3.14-27.648-.6-2.206-.983-4.286-2.248-6.429-3.37-8.425-4.406-17.85-6.584-27.531-7.462-9.756-.885-19.772-.451-28.633,2.541-8.962,3.027-16.742,8.671-25.778,13.447-4.916,2.6-10.2,4.941-15.323,3.93A16.953,16.953,0,0,1,415.6,972.492Z" transform="translate(-403.081 -808.812)" style="fill:#f9cc3e"/><path d="M419.4,973.781c5.118,1.011,10.406-1.331,15.323-3.93,9.036-4.777,16.816-10.421,25.778-13.447,8.86-2.992,18.877-3.427,28.633-2.541,9.681.878,19.106,3.056,27.531,7.462-1.537-.981-4.748-.83-6.416.128-10.322,5.928-12.317,15.885-3.875,24.141,8.373,8.19,18.053,15.044,24.862,20.607,10.38-9.166,19.868-17.1,28.811-25.6,6.041-5.744,8.88-13.245,8.8-22.379,8.309-2.7,17.364-3.225,26.259-3.609,6.331-.273,12.581-.473,18.864-.224a12.763,12.763,0,0,0-10.746,4.773c-12.809,15.076-25.894,29.918-38.579,45.1a65.217,65.217,0,0,0-8.182,13.355c-1.706,3.505-1.386,7.09,1.554,10.519,1.5,1.748,1.9,4.856,1.945,7.364.255,14.238,3.206,27.706,10.069,40.314a10.083,10.083,0,0,1,.485,7.018c-1.025,3.414-3.079,6.51-4.6,9.787-1.17,2.524-3.118,5.135-3.078,7.681.089,5.544-2.549,8.281-7.417,9.486-4.938,1.222-9.938,2.965-13.688-2.814-.727-1.121-3.63-1.8-5.081-1.324-9.783,3.219-16.176-1.265-21.374-8.818a56.956,56.956,0,0,1-3.945-6.269c-2.7-5.29-6.751-9.1-11.593-12.516a28.041,28.041,0,0,1-7.864-9.1c-1.039-1.857-.876-5.826.443-7.15,1.265-1.27,4.74-.532,7.214-.321,1.216.1,2.364,1.01,3.589,1.574,3.693-12.249-3.452-18.461-12.411-23.641-6.993-4.043-14.129-7.849-21-12.088-6.724-4.15-13.192-8.715-18.642-12.345-3.664.345-6.367.607-9.072.851-1.3.117-2.87-.239-3.851.37-5.271,3.27-8.143.1-10.281-3.924-4.51-8.484-7.092-17.222-3.842-27.025,2.452-7.4,1.4-9.69-5.932-11.877" transform="translate(-403.081 -808.812)" style="fill:#00918d"/><path d="M501.619,1067.609c-2.2,7.54,1.188,11.871,7.815,11.436Z" transform="translate(-403.081 -808.812)" style="fill:#333"/><path d="M493.5,973.449q.958,1,1.6-.253a12.894,12.894,0,0,0,1.023-2.8,5.845,5.845,0,0,0,.183-2.494q-.2-.951-2.155-1.208t-1.75,1.2a18.375,18.375,0,0,1,.174,3A3.432,3.432,0,0,0,493.5,973.449Z" transform="translate(-403.081 -808.812)" style="fill:#333"/><path d="M504.587,960.978q.15-.642-1.309-1.39a3.133,3.133,0,0,0-2.711-.234,4.608,4.608,0,0,0-2.126,1.9q-.874,1.386-.353,1.718t1.941-.187a22.17,22.17,0,0,1,2.914-.842Q504.437,961.62,504.587,960.978Z" transform="translate(-403.081 -808.812)" style="fill:#333"/><path d="M535.378,1036.465c-2.007,1.644-4.17,4.011-6.829,5.486-9.3,5.159-12,12.1-7.3,21.978,1.541,3.235,1.8,6.95-1.171,10.152-.614.661-.488,3.052.2,3.708,4.955,4.754,10.049,9.378,15.332,13.761,1.05.871,3.145.869,4.69.689,6.16-.72,10.955-9.193,9.01-17.038C546,1061.885,545,1047.714,535.378,1036.465Z" transform="translate(-403.081 -808.812)" style="fill:#333"/><path d="M509.09,1045.093c1.41-1.308,2.927-2.217,3.739-3.555,3.675-6.056,7.145-12.236,10.7-18.366,3.864-6.668,3.662-7.767-2.535-12.451-7.854-5.936-15.665-11.934-23.661-17.672-1.541-1.106-4.543-2.225-5.7-1.492-7.256,4.619-15.5,5.271-23.565,6.794-6.945,1.311-8.654,4.68-3.784,9.651,11.033,11.263,22.7,21.925,34.44,32.458C501.256,1042.729,505.2,1043.419,509.09,1045.093Z" transform="translate(-403.081 -808.812)" style="fill:#333"/><path d="M456.406,977.413q1.216,3.412,6.2,2.159a58.239,58.239,0,0,1,9.818-1.619,6.689,6.689,0,0,0,6.333-5.013q1.5-4.648-2.577-6.355a11.923,11.923,0,0,0-8.534-.264,27.492,27.492,0,0,0-8.457,4.561Q455.19,974,456.406,977.413Z" transform="translate(-403.081 -808.812)" style="fill:#333"/><path d="M448.946,964.981q-1.225-1.667-2.352.4t-2.272,3.89a4.416,4.416,0,0,0-.4,3.975A2.429,2.429,0,0,0,446.6,975.2a3.112,3.112,0,0,0,2.707-2.184,12.233,12.233,0,0,0,.818-4.177A6.1,6.1,0,0,0,448.946,964.981Z" transform="translate(-403.081 -808.812)" style="fill:#333"/><path d="M461.805,994.113q3.269,1.636,7.809.25A84.98,84.98,0,0,0,478.7,991q4.542-1.976,2.971-5.715t-6.328-3.491q-4.757.248-9.6.935a6.653,6.653,0,0,0-6.023,5.217Q458.536,992.477,461.805,994.113Z" transform="translate(-403.081 -808.812)" style="fill:#333"/><path d="M644.482,905.542c.658-1.167-2.845-9.11-5.682-15.047a98.716,98.716,0,0,0-7.848-14.032,103.637,103.637,0,0,0-10.094-12.512,100.028,100.028,0,0,0-11.978-10.728,111.432,111.432,0,0,0-13.428-8.849,160.556,160.556,0,0,0-14.521-6.915c-5.4-2.338-11.636-4.975-15.3-4.954s-4.762,2.7-1.892,4.627,9.7,3.1,15.317,4.906a67.125,67.125,0,0,1,14.5,6.95,133.745,133.745,0,0,1,13.347,8.968A98.952,98.952,0,0,1,618.7,868.884a71.253,71.253,0,0,1,9.739,12.787c2.551,4.491,4.15,9.157,7.359,14.294S643.824,906.709,644.482,905.542Z" transform="translate(-403.081 -808.812)" style="fill:#00918d"/></svg>