<svg id="Layer_1" data-name="Layer 1" xmlns="http://www.w3.org/2000/svg" viewBox="0 0 289.891 292.985"><title>Icon_Suppot</title><path d="M409.285,944.453a84.077,84.077,0,0,1,5,19.673,59.606,59.606,0,0,0,2.38,11.193A32.95,32.95,0,0,0,421.9,984.3a110.559,110.559,0,0,0,9.228,10.6,67,67,0,0,0,11.068,8.948c4.562,3.024,10.486,6.454,17.969,7.077-1.746-4.24-5.113-8.73-8.252-12.429s-6.048-6.61-8.48-9.353a28.476,28.476,0,0,1-5.55-8.272,18.245,18.245,0,0,1-1.164-8.854,7.669,7.669,0,0,1,3.263-5.591,10.122,10.122,0,0,1,6.381-1.517c2.2.208,4.2,1.164,6.859,3.471s5.986,5.965,9.854,9.73,8.279,7.636,12.1,10.675a124.749,124.749,0,0,0,11.571,8.12c4.516,2.874,10.315,6.415,15.73,10.059a101.083,101.083,0,0,1,14.245,11.141,36.2,36.2,0,0,1,8.561,12.825c2.186,5.319,3.985,12.2,5.237,21.922s1.956,22.273-1.8,48.79l-40.886-.273c-.77-17.09-1.463-21.478-2.425-25.365a31.957,31.957,0,0,0-4.247-10.354,34.374,34.374,0,0,0-9.032-8.776,173.082,173.082,0,0,0-14.832-9.032c-5.389-3.028-10.829-6-16.012-9.34a96.529,96.529,0,0,1-13.138-9.9,31.225,31.225,0,0,1-5.876-7.749,97.214,97.214,0,0,0-6.826-9.931c-2.8-3.515-6.082-6.954-8.853-10.341a44.414,44.414,0,0,1-6.518-10.136,41.665,41.665,0,0,1-2.813-11.191c-.607-4.288-1.1-9.374-1.536-14.038a94.838,94.838,0,0,1-.645-12.385,18.374,18.374,0,0,1,2.021-8.218,8.023,8.023,0,0,1,4.744-3.943C403.856,940.063,406.275,940.2,409.285,944.453Z" transform="translate(-395.046 -808.653)" style="fill:#f9cc3e"/><path d="M670.7,944.453a84.074,84.074,0,0,0-5,19.673,59.61,59.61,0,0,1-2.38,11.193,32.949,32.949,0,0,1-5.238,8.979,110.544,110.544,0,0,1-9.228,10.6,67,67,0,0,1-11.068,8.948c-4.562,3.024-10.486,6.454-17.969,7.077,1.746-4.24,5.113-8.73,8.252-12.429s6.048-6.61,8.48-9.353a28.476,28.476,0,0,0,5.55-8.272,18.245,18.245,0,0,0,1.164-8.854A7.669,7.669,0,0,0,640,966.422a10.122,10.122,0,0,0-6.381-1.517c-2.2.208-4.2,1.164-6.859,3.471s-5.986,5.965-9.854,9.73-8.279,7.636-12.1,10.675a124.743,124.743,0,0,1-11.571,8.12c-4.516,2.874-10.315,6.415-15.73,10.059a101.082,101.082,0,0,0-14.245,11.141,36.2,36.2,0,0,0-8.561,12.825c-2.186,5.319-3.985,12.2-5.237,21.922s-1.955,22.273,1.8,48.79l40.886-.273c.77-17.09,1.463-21.478,2.425-25.365a31.96,31.96,0,0,1,4.247-10.354,34.373,34.373,0,0,1,9.032-8.776,173.082,173.082,0,0,1,14.832-9.032c5.389-3.028,10.829-6,16.012-9.34a96.529,96.529,0,0,0,13.138-9.9,31.225,31.225,0,0,0,5.876-7.749,97.2,97.2,0,0,1,6.826-9.931c2.8-3.515,6.081-6.954,8.853-10.341a44.414,44.414,0,0,0,6.518-10.136,41.667,41.667,0,0,0,2.813-11.191c.606-4.288,1.1-9.374,1.536-14.038a94.827,94.827,0,0,0,.645-12.385,18.373,18.373,0,0,0-2.021-8.218,8.023,8.023,0,0,0-4.744-3.943C676.126,940.063,673.707,940.2,670.7,944.453Z" transform="translate(-395.046 -808.653)" style="fill:#f9cc3e"/><path d="M462.348,888.1a3.926,3.926,0,0,1,3.926-3.926h12.416a62.488,62.488,0,0,1,9.385-22.657l-8.779-8.779a3.926,3.926,0,0,1,0-5.552L490.883,835.6a3.926,3.926,0,0,1,5.552,0l8.779,8.779A62.488,62.488,0,0,1,527.871,835V822.579a3.926,3.926,0,0,1,3.926-3.926h16.388a3.926,3.926,0,0,1,3.926,3.926V835a62.488,62.488,0,0,1,22.657,9.385l8.779-8.779a3.926,3.926,0,0,1,5.552,0l11.588,11.588a3.926,3.926,0,0,1,0,5.552l-8.779,8.779a62.488,62.488,0,0,1,9.385,22.657h12.416a3.926,3.926,0,0,1,3.926,3.926V904.49a3.926,3.926,0,0,1-3.926,3.926H601.292a62.488,62.488,0,0,1-9.385,22.657l8.779,8.779a3.926,3.926,0,0,1,0,5.552L589.1,956.992a3.926,3.926,0,0,1-5.552,0l-8.779-8.779a62.489,62.489,0,0,1-22.657,9.385v12.416a3.926,3.926,0,0,1-3.926,3.926H531.8a3.926,3.926,0,0,1-3.926-3.926V957.6a62.489,62.489,0,0,1-22.657-9.385l-8.779,8.779a3.926,3.926,0,0,1-5.552,0L479.295,945.4a3.926,3.926,0,0,1,0-5.552l8.779-8.779a62.488,62.488,0,0,1-9.385-22.657H466.273a3.926,3.926,0,0,1-3.926-3.926Zm125.2,8.194a47.56,47.56,0,1,0-3.339,17.507A47.529,47.529,0,0,0,587.551,896.3Z" transform="translate(-395.046 -808.653)" style="fill:#00918d;stroke:#00918d;stroke-miterlimit:10;stroke-width:20px"/></svg>