<svg id="Layer_1" data-name="Layer 1" xmlns="http://www.w3.org/2000/svg" viewBox="0 0 339.904 232.243"><title>Icon_Parking</title><path d="M457.727,931.868c-2.92,10.789-4.669,17.328-5.957,22A59.661,59.661,0,1,0,460,958.012c1.435-4.237,3.577-10.611,7.171-21.208l32.818,51.755a50.389,50.389,0,0,0,3.552,5.643q1.368,1.885,2.9,3.641.8.916,1.644,1.793,1.331,1.383,2.77,2.656,1.494,1.319,3.1,2.5.858.63,1.748,1.216,1.551,1.021,3.188,1.9a41.5,41.5,0,0,0,4.038,1.9q.906.368,1.829.692t1.834.6q.7.209,1.407.393.539.14,1.082.266,1.019.237,2.047.428.949.177,1.9.322.867.132,1.736.244.405.053.811.1l.854.1,1.441.166.468.055.7.085.628.079,1.572.2.948.116q.77.092,1.541.173a17.75,17.75,0,0,0,33.543-.748l12.913.412a59.661,59.661,0,1,0,114.454-27.65c.443.1.907.207,1.394.321L704,971.166l-8.808-.7a59.661,59.661,0,0,0-84.915-6.21q-.887.78-1.741,1.594a291.372,291.372,0,0,1-19.755-28.742,36.177,36.177,0,0,0,1.065-5.425l1.845.6.985-3.041-3.029-.981,5.089-16.515c.2-.5.409-.564,1.053-.566.753,0,1.506-.009,2.259-.006a1.627,1.627,0,0,0,1.409-.726,3.135,3.135,0,0,0,.6-1.958c-.041-.8-.03-.805.754-1.1a7.684,7.684,0,0,1,.733-.267c1.159-.306,2.228-.326,3.007.828a1.639,1.639,0,0,0,1.347.683,10.181,10.181,0,0,0,4.412-.745,1.731,1.731,0,0,0,1.188-1.377,2.282,2.282,0,0,1,.325-.693,2.7,2.7,0,0,0,.281-2.542,9.462,9.462,0,0,1-.394-.964c-.124-.372-.211-.757-.323-1.167A3.736,3.736,0,0,1,611.9,901q1.676-.184,3.354-.353c.23-.023.462-.024.693-.036.659-.033.879-.191.862-.812a20.7,20.7,0,0,0-.227-3.454A7.538,7.538,0,0,0,612.806,891a13.126,13.126,0,0,0-4.889-1.68,11.913,11.913,0,0,0-3.459-.017,28.476,28.476,0,0,0-4.416,1.239,18.939,18.939,0,0,1-6.555,1.522c-2.6-.052-5.212-.075-7.809-.243a65.459,65.459,0,0,0-7.789-.261,22.32,22.32,0,0,0-7.419,1.634,9.741,9.741,0,0,0-5.571,5.4,5.458,5.458,0,0,0-.365,1.332,1.041,1.041,0,0,0,.91,1.251c.394.091.783.22,1.182.273a40.338,40.338,0,0,0,6.651.589c2.777-.093,5.555-.185,8.333-.256a3.19,3.19,0,0,1,1.186.166A9.319,9.319,0,0,1,586,904.114a9.908,9.908,0,0,0,4.505,2.8l-6.059,19.663-6.623-2.145-.985,3.041,5.548,1.8c-7.815,21.6-14.079,39.882-20.867,60.664a17.75,17.75,0,0,0-15.807,7.711c-1.736-.174-3.46-.416-5.195-.624a58.7,58.7,0,0,1-8.856-1.423,25.061,25.061,0,0,1-6.947-3.165,29.582,29.582,0,0,1-6.08-5.4,34.494,34.494,0,0,1-4.557-6.677l-35.509-56a24.509,24.509,0,0,1-1.516-2.36,15.364,15.364,0,0,1-2.021-5.058,11.716,11.716,0,0,1-.017-3.277l2.61-8.662,1.873.564,4.286-14.222-10.06-3.031,7.293-24.2c1.439-.971,2.539.363,3.89.921a4.7,4.7,0,0,0,4.155-.4c1.205-.738,2.016-2,3.206-2.239s2.758.528,4.183.38a4.616,4.616,0,0,0,3.378-2.464,3.11,3.11,0,0,0-.087-3.565c-.814-.885-2.5-1.224-4.072-1.167s-3.035.511-4.257.111-2.206-1.655-3.479-2.124a7.649,7.649,0,0,0-4.268.2,8.691,8.691,0,0,0-3.714,1.581c-.984.847-1.653,2.159-2.633,3.19a10.554,10.554,0,0,1-3.576,2.332,24.793,24.793,0,0,1-4.085,1.236c-1.46.34-3.06.672-3.276,1.711s.954,2.785,2.2,3.507a2.722,2.722,0,0,0,3.591-.748l-5.877,19.5-3.84-1.157-2.143,7.111,12.145,3.66-2.143,7.111-5.186-1.563-.79,2.622-57.755,2.3,5.054,23.537a4.345,4.345,0,0,0,4.379,3.431Z" transform="translate(-369.446 -836.471)" style="fill:#00918d"/><path d="M449.441,961.923c-1.7,5.511-3.552,10.556-5.085,14.6a83.632,83.632,0,0,1-4.521,10.408,137.911,137.911,0,0,1-7.463,11.778,11.226,11.226,0,1,0,5.7,4.4c1.844-2.662,3.014-4.341,4.171-6.108,2.021-3.088,4-6.441,5.579-9.449s2.758-5.672,4.263-9.121,3.333-7.685,4.878-11.772c.2-.533.4-1.063.6-1.628a52.42,52.42,0,1,1-7.806-4.158C449.655,961.227,449.549,961.576,449.441,961.923Z" transform="translate(-369.446 -836.471)" style="fill:#333"/><path d="M637.435,1007.129a11.181,11.181,0,0,1,.416-1.519c-1.986-1.535-6.865-5.364-10.667-8.625a102.856,102.856,0,0,1-11.308-11.374c-1.977-2.239-4.308-4.946-7.448-8.891a52.42,52.42,0,0,0-8.623,16.224,122.96,122.96,0,0,1,19.842,4.926C624.233,999.392,629.319,1001.3,637.435,1007.129Z" transform="translate(-369.446 -836.471)" style="fill:#333"/><path d="M588.6,949.854c-5.339,15.748-9.768,29.193-13.789,40.811,8.42.494,13.694.892,17.713,1.313a59.661,59.661,0,0,1,11.342-21.13C599.937,965.682,595,958.942,588.6,949.854Z" transform="translate(-369.446 -836.471)" style="fill:#333"/><path d="M570.66,1003.142a11.226,11.226,0,1,0,.176,8.59A11.21,11.21,0,0,0,570.66,1003.142Z" transform="translate(-369.446 -836.471)" style="fill:#333"/><circle cx="560.379" cy="1007.649" r="6.311" transform="translate(-954.612 301.972) rotate(-67.434)" style="fill:#00918d"/><path d="M641.742,1000.324a11.226,11.226,0,1,1-2.968,14.711l-41.3-1.317a52.42,52.42,0,1,0,98.283-29.671,73.167,73.167,0,0,0-11.158-1.166,59.582,59.582,0,0,0-12.776,1.262,55.777,55.777,0,0,0-10.747,3.249,79.228,79.228,0,0,0-8.328,4.294,21.624,21.624,0,0,0-4.66,3.3,5.3,5.3,0,0,1-1.867.7,4.839,4.839,0,0,1-2.231-.153,5.009,5.009,0,0,1-1.436-.732l-26.991-25.54q-1.31,1.123-2.542,2.329,2.954,3.723,5.977,7.41a98.784,98.784,0,0,0,10.731,11.7c2.778,2.453,5.808,4.591,8.766,7.007C639.571,998.583,640.636,999.5,641.742,1000.324Z" transform="translate(-369.446 -836.471)" style="fill:#333"/><rect x="30.781" y="131.68" width="14.94" height="67.809" style="fill:#f9cc3e"/><rect x="290.894" y="131.68" width="14.94" height="67.809" style="fill:#f9cc3e"/><path d="M547.685,924.829a9.037,9.037,0,0,1,1.344.495c.153.072.3.149.449.234.115.067.228.137.336.215q.134.1.258.2c.074.064.146.132.214.2a3.016,3.016,0,0,1,.2.229c.073.092.14.189.2.288a5.71,5.71,0,0,1,.459.886c.043.1.083.2.122.308.053.141.1.283.15.425q.151.449.275.907a13.231,13.231,0,0,1,.342,1.684,11.684,11.684,0,0,1,0,3.16q-.056.414-.14.823-.088.433-.2.86c-.083.3-.175.607-.276.906-.048.142-.1.284-.151.425-.039.1-.079.206-.122.307a5.7,5.7,0,0,1-.46.885c-.064.1-.131.195-.2.287a3.014,3.014,0,0,1-.2.229c-.068.071-.14.138-.214.2s-.169.139-.258.2c-.108.077-.221.148-.337.214q-.22.126-.449.234c-.193.091-.391.172-.591.246-.248.092-.5.173-.754.247H536.319v-15.3Zm4.114,29.659q10.109-2.9,13.555-12.449a27.358,27.358,0,0,0,.014-19.094q-3.433-9.55-13.537-12.469H521.379V967.42h14.94V954.488Z" transform="translate(-369.446 -836.471)" style="fill:#f9cc3e"/><path d="M415.167,884.166a32.756,32.756,0,0,1,32.756-32.756H627.585a32.756,32.756,0,0,1,32.756,32.756v60.2h14.94v-60.2a47.7,47.7,0,0,0-47.7-47.7H447.922a47.7,47.7,0,0,0-47.7,47.7v60.2h14.94Z" transform="translate(-369.446 -836.471)" style="fill:#f9cc3e"/></svg>