<svg id="Layer_1" data-name="Layer 1" xmlns="http://www.w3.org/2000/svg" viewBox="0 0 185.007 302.206"><title>Icon_TrafficLight</title><path d="M489.137,841.542a8.776,8.776,0,0,1-1.569.285q-16.418.025-32.835-.008a5.891,5.891,0,0,1-1.574-.461c2.762-.026,5.523-.07,8.285-.073q12.816-.014,25.632.008A16.917,16.917,0,0,1,489.137,841.542Z" transform="translate(-448.005 -803.776)" style="fill:#f9cc3e"/><path d="M452.275,841.384l.883-.027a5.891,5.891,0,0,0,1.574.461q16.418.041,32.835.008a8.776,8.776,0,0,0,1.569-.285c2.439.7,3.59,2.276,3.6,5.05q.022,10.947.006,21.894c0,4.58-.021,9.161.009,13.741a4.733,4.733,0,0,1-2.947,4.809c-1.952.852-3.777.4-5.456-1.344Q466.96,867.638,449.6,849.564c-2.8-2.919-1.73-7,2.05-8.039Z" transform="translate(-448.005 -803.776)" style="fill:#f9cc3e"/><path d="M492.739,1010.746c0,5.842-.025,11.685.012,17.527.015,2.278-.742,4.036-2.918,4.977-2.046.885-3.823.411-5.679-1.517q-17.236-17.9-34.466-35.812c-1.54-1.6-2.18-3.387-1.251-5.492a4.776,4.776,0,0,1,4.854-2.89c11.332.023,22.664.008,34,.012q5.437,0,5.449,5.518Q492.752,1001.907,492.739,1010.746Z" transform="translate(-448.005 -803.776)" style="fill:#f9cc3e"/><path d="M555.672,1105.978l-29.413,0a4.23,4.23,0,0,0-.661-.516,5.455,5.455,0,0,1-3.172-5.235q-.007-16.914.008-33.828a5.429,5.429,0,0,1,5.681-5.723q13.063-.04,26.126,0a5.383,5.383,0,0,1,5.618,5.611c.023,11.376,0,22.753.009,34.13C559.868,1103.341,558.131,1104.926,555.672,1105.978Z" transform="translate(-448.005 -803.776)" style="fill:#f9cc3e"/><path d="M545.347,803.776c2.239.407,4.492.747,6.713,1.235,5.505,1.208,10.7,3.137,15.086,6.829,1.315,1.108,2.774,2.235,2.037,4.282-.745,2.068-2.558,1.913-4.3,1.911q-24.605-.018-49.21-.007c-.3,0-.6-.007-.906,0a2.779,2.779,0,0,1-2.876-1.781,2.829,2.829,0,0,1,.775-3.293,28.5,28.5,0,0,1,12.671-6.985c2.888-.82,5.891-1.23,8.84-1.839a5.453,5.453,0,0,0,.893-.352h10.276Z" transform="translate(-448.005 -803.776)" style="fill:#f9cc3e"/><path d="M492.738,937.6q0,8.839,0,17.678c0,2.491-1.01,4.158-3.013,4.912a4.715,4.715,0,0,1-5.451-1.436q-17.263-17.983-34.564-35.929c-1.542-1.6-2.19-3.378-1.285-5.486a4.749,4.749,0,0,1,4.835-2.923c11.433.016,22.866,0,34.3.011,3.225,0,5.157,1.932,5.172,5.192C492.757,925.611,492.737,931.6,492.738,937.6Z" transform="translate(-448.005 -803.776)" style="fill:#f9cc3e"/><path d="M451.647,841.524l.627-.14Z" transform="translate(-448.005 -803.776)" style="fill:#f9cc3e"/><path d="M592.807,841.358l1.188-.009c5.084-.023,10.168-.055,15.252-.065,6.094-.011,12.187-.026,18.281.022a14.764,14.764,0,0,1,2.748.538q-1.447,0-2.895,0-15.909,0-31.818-.021a5.767,5.767,0,0,1-1.568-.47,5.767,5.767,0,0,0,1.568.47q15.909.042,31.818.021,1.447,0,2.895,0c3.147,1.633,3.663,5.1,1.115,7.759q-13.848,14.424-27.717,28.826c-2.336,2.429-4.664,4.867-7.012,7.285-1.673,1.723-3.5,2.166-5.459,1.312a4.656,4.656,0,0,1-2.919-4.669q.009-17.96.012-35.92a4.57,4.57,0,0,1,3.592-4.893Z" transform="translate(-448.005 -803.776)" style="fill:#f9cc3e"/><path d="M591.886,841.543l.921-.186Z" transform="translate(-448.005 -803.776)" style="fill:#f9cc3e"/><path d="M610.667,914.423c5.641,0,11.282.026,16.923-.013,2.281-.016,4.06.755,5,2.908.949,2.173.219,3.964-1.36,5.6q-17.2,17.831-34.352,35.713c-1.582,1.65-3.342,2.391-5.555,1.571-2.039-.755-3.034-2.452-3.035-5.054q0-17.527,0-35.054c0-3.873,1.782-5.668,5.608-5.671Q602.281,914.419,610.667,914.423Z" transform="translate(-448.005 -803.776)" style="fill:#f9cc3e"/><path d="M588.285,1010.505q0-8.688,0-17.375c.005-3.767,1.81-5.579,5.541-5.58,11.231,0,22.462.019,33.693-.018,2.345-.008,4.165.748,5.1,2.977.92,2.188.121,3.955-1.452,5.585q-17.153,17.774-34.256,35.6c-1.853,1.926-3.637,2.422-5.672,1.6-2.01-.816-2.956-2.444-2.957-5.1Q588.283,1019.344,588.285,1010.505Z" transform="translate(-448.005 -803.776)" style="fill:#f9cc3e"/><path d="M498.519,938.866q0-52.961,0-105.921c0-6.713,4.321-11.015,11.073-11.016q30.976-.006,61.951,0c6.623,0,10.958,4.353,10.958,10.981q0,105.922,0,211.843c0,7.228-4.194,11.405-11.452,11.406q-30.749,0-61.5,0c-6.7,0-11.034-4.347-11.034-11.067Q498.517,991.978,498.519,938.866Zm41.868,105.548c15.188.382,28.486-12.264,28.539-28.218a28.421,28.421,0,1,0-56.841-.4C511.973,1031.84,525.2,1044.678,540.386,1044.414Zm.059-73.012a28.485,28.485,0,1,0-28.348-29A28.494,28.494,0,0,0,540.445,971.4Zm28.478-101.714A28.414,28.414,0,1,0,540.512,898.3,28.5,28.5,0,0,0,568.924,869.688Z" transform="translate(-448.005 -803.776)" style="fill:#00918d"/><path d="M574.071,863.308c-3.078-14.989-16.895-25.868-33.149-26.02-16.682-.155-30.477,10.462-33.874,26.345a24.025,24.025,0,0,1,.057-9.379,32.476,32.476,0,0,1,26.7-25.629c12.994-2.153,24.263,1.29,33.153,11.22a28.791,28.791,0,0,1,7.374,21.4C574.291,861.935,574.158,862.621,574.071,863.308Z" transform="translate(-448.005 -803.776)" style="fill:#00918d"/><path d="M574.071,863.308c.088-.688.221-1.373.256-2.063a28.791,28.791,0,0,0-7.374-21.4c-8.89-9.93-20.158-13.373-33.153-11.22a32.476,32.476,0,0,0-26.7,25.629,24.025,24.025,0,0,0-.057,9.379c3.4-15.883,17.192-26.5,33.874-26.345C557.176,837.44,570.992,848.319,574.071,863.308Z" transform="translate(-448.005 -803.776)" style="fill:#f9cc3e"/><path d="M574.028,936.961c-3.445-16.465-18.009-26.586-33.949-26.417-16.285.172-29.551,10.688-33.291,26a57.08,57.08,0,0,1,.038-6.834c1.644-13.536,11.545-24.272,25.139-27.424,14.253-3.305,28.681,1.794,36.753,13.032a29.366,29.366,0,0,1,5.6,19.316C574.285,935.271,574.164,935.9,574.028,936.961Z" transform="translate(-448.005 -803.776)" style="fill:#f9cc3e"/><path d="M507.02,1009.824a26.79,26.79,0,0,1,2.234-15.9c5.141-10.838,13.911-17.066,25.605-18.867,12.545-1.931,23.433,1.711,32.007,11.246a28.869,28.869,0,0,1,7.474,21.222c-.025.6-.1,1.2-.174,1.8a4.082,4.082,0,0,1-.2.649c-3.416-16.645-18.744-26.5-34.25-26.132C523.582,984.229,510.315,994.76,507.02,1009.824Z" transform="translate(-448.005 -803.776)" style="fill:#f9cc3e"/><path d="M540.386,1044.414c15.188.382,28.486-12.264,28.539-28.218a28.421,28.421,0,1,0-56.841-.4C511.973,1031.84,525.2,1044.678,540.386,1044.414Z" transform="translate(-448.005 -803.776)" style="fill:#00918d;opacity:0.6000000000000001"/><path d="M540.445,971.4a28.485,28.485,0,1,0-28.348-29A28.494,28.494,0,0,0,540.445,971.4Z" transform="translate(-448.005 -803.776)" style="fill:#00918d;opacity:0.2"/><path d="M568.924,869.688A28.414,28.414,0,1,0,540.512,898.3,28.5,28.5,0,0,0,568.924,869.688Z" transform="translate(-448.005 -803.776)" style="fill:#00918d;opacity:0.5"/></svg>